<?xml version="1.0" encoding="UTF-8" standalone="no"?>
<!-- Created with Inkscape (http://www.inkscape.org/) -->

<svg
   width="512"
   height="512"
   viewBox="0 0 135.46667 135.46667"
   version="1.1"
   id="svg1"
   xml:space="preserve"
   xmlns:inkscape="http://www.inkscape.org/namespaces/inkscape"
   xmlns:sodipodi="http://sodipodi.sourceforge.net/DTD/sodipodi-0.dtd"
   xmlns="http://www.w3.org/2000/svg"
   xmlns:svg="http://www.w3.org/2000/svg"><sodipodi:namedview
     id="namedview1"
     pagecolor="#ffffff"
     bordercolor="#000000"
     borderopacity="0.25"
     inkscape:showpageshadow="2"
     inkscape:pageopacity="0.0"
     inkscape:pagecheckerboard="0"
     inkscape:deskcolor="#d1d1d1"
     inkscape:document-units="mm" /><defs
     id="defs1"><filter
       style="color-interpolation-filters:sRGB"
       inkscape:label="Drop Shadow"
       id="filter32"
       x="-0.30002819"
       y="-0.55"
       width="1.8500799"
       height="1.85"><feFlood
         result="flood"
         in="SourceGraphic"
         flood-opacity="1.000000"
         flood-color="rgb(0,47,64)"
         id="feFlood31" /><feGaussianBlur
         result="blur"
         in="SourceGraphic"
         stdDeviation="2.000000"
         id="feGaussianBlur31" /><feOffset
         result="offset"
         in="blur"
         dx="4.000000"
         dy="-4.000000"
         id="feOffset31" /><feComposite
         result="comp1"
         operator="out"
         in="flood"
         in2="offset"
         id="feComposite31" /><feComposite
         result="comp2"
         operator="in"
         in="comp1"
         in2="SourceGraphic"
         id="feComposite32" /></filter><filter
       style="color-interpolation-filters:sRGB"
       inkscape:label="Drop Shadow"
       id="filter34"
       x="-0.28985162"
       y="-0.55395998"
       width="1.8019255"
       height="1.8675333"><feFlood
         result="flood"
         in="SourceGraphic"
         flood-opacity="1.000000"
         flood-color="rgb(0,47,64)"
         id="feFlood32" /><feGaussianBlur
         result="blur"
         in="SourceGraphic"
         stdDeviation="2.000000"
         id="feGaussianBlur32" /><feOffset
         result="offset"
         in="blur"
         dx="4.000000"
         dy="-4.000000"
         id="feOffset32" /><feComposite
         result="comp1"
         operator="out"
         in="flood"
         in2="offset"
         id="feComposite33" /><feComposite
         result="comp2"
         operator="in"
         in="comp1"
         in2="SourceGraphic"
         id="feComposite34" /></filter></defs><g
     inkscape:label="Layer 1"
     inkscape:groupmode="layer"
     id="layer1"><path
       d="m 3.02832,10 7.19628,4.8166 c 0.6415,0.4277 0.9623,0.6415 1.309,0.7246 0.3063,0.0734 0.6257,0.0734 0.9321,0 0.3467,-0.0831 0.6675,-0.2969 1.309,-0.7246 L 20.971,10 M 10.2981,4.06879 4.49814,7.71127 C 3.95121,8.05474 3.67775,8.22648 3.4794,8.45864 3.30385,8.66412 3.17176,8.90305 3.09111,9.161 3,9.45244 3,9.77535 3,10.4212 V 16.8 c 0,1.1201 0,1.6802 0.21799,2.108 0.19174,0.3763 0.4977,0.6823 0.87403,0.874 C 4.51984,20 5.07989,20 6.2,20 h 11.6 c 1.1201,0 1.6802,0 2.108,-0.218 0.3763,-0.1917 0.6823,-0.4977 0.874,-0.874 C 21,18.4802 21,17.9201 21,16.8 V 10.4212 C 21,9.77535 21,9.45244 20.9089,9.161 20.8282,8.90305 20.6962,8.66412 20.5206,8.45864 20.3223,8.22648 20.0488,8.05474 19.5019,7.71127 l -5.8,-3.64248 C 13.0846,3.68116 12.776,3.48735 12.4449,3.4118 12.152,3.34499 11.848,3.34499 11.5551,3.4118 11.224,3.48735 10.9154,3.68116 10.2981,4.06879 Z"
       stroke="#000000"
       stroke-width="2"
       stroke-linecap="round"
       stroke-linejoin="round"
       id="path34"
       style="display:inline;fill:#bcd2db;fill-opacity:0.988235;stroke:none;stroke-width:0.833929;stroke-dasharray:none"
       transform="matrix(5.9957131,0,0,5.9957131,-4.215225,-2.3087284)" /><g
       style="fill:none;fill-opacity:1;stroke-width:0.833929;stroke-dasharray:none;filter:url(#filter34)"
       id="g1"
       transform="matrix(5.9957132,0,0,5.9957132,-4.2152251,-2.3087284)"><path
         d="m 3.02832,10 7.19628,4.8166 c 0.6415,0.4277 0.9623,0.6415 1.309,0.7246 0.3063,0.0734 0.6257,0.0734 0.9321,0 0.3467,-0.0831 0.6675,-0.2969 1.309,-0.7246 L 20.971,10 M 10.2981,4.06879 4.49814,7.71127 C 3.95121,8.05474 3.67775,8.22648 3.4794,8.45864 3.30385,8.66412 3.17176,8.90305 3.09111,9.161 3,9.45244 3,9.77535 3,10.4212 V 16.8 c 0,1.1201 0,1.6802 0.21799,2.108 0.19174,0.3763 0.4977,0.6823 0.87403,0.874 C 4.51984,20 5.07989,20 6.2,20 h 11.6 c 1.1201,0 1.6802,0 2.108,-0.218 0.3763,-0.1917 0.6823,-0.4977 0.874,-0.874 C 21,18.4802 21,17.9201 21,16.8 V 10.4212 C 21,9.77535 21,9.45244 20.9089,9.161 20.8282,8.90305 20.6962,8.66412 20.5206,8.45864 20.3223,8.22648 20.0488,8.05474 19.5019,7.71127 l -5.8,-3.64248 C 13.0846,3.68116 12.776,3.48735 12.4449,3.4118 12.152,3.34499 11.848,3.34499 11.5551,3.4118 11.224,3.48735 10.9154,3.68116 10.2981,4.06879 Z"
         stroke="#000000"
         stroke-width="2"
         stroke-linecap="round"
         stroke-linejoin="round"
         id="path1"
         style="fill:none;fill-opacity:1;stroke-width:0.833929;stroke-dasharray:none" /></g><g
       style="fill:none;stroke-width:4.70491;stroke-dasharray:none;filter:url(#filter32)"
       id="g3"
       transform="matrix(2.599709,0,0,2.599709,46.931825,35.927922)"><g
         fill="#000000"
         id="g2"
         style="stroke-width:4.70491;stroke-dasharray:none"><path
           d="M 1.5,8 A 6.5,6.5 0 0 1 8.244,1.504 0.75000433,0.75000433 0 1 0 8.299,0.005 8,8 0 1 0 15.335,11.198 0.75010416,0.75010416 0 0 0 13.96,10.598 6.722,6.722 0 0 1 13.74,11.051 6.5,6.5 0 0 1 1.5,8 Z M 11.74,0.926 a 0.75041405,0.75041405 0 1 0 -0.703,1.326 c 0.144,0.076 0.284,0.157 0.421,0.243 a 0.75048318,0.75048318 0 0 0 0.8,-1.27 7.995,7.995 0 0 0 -0.519,-0.299 z m 3.034,2.817 a 0.7502168,0.7502168 0 0 0 -1.27,0.799 c 0.087,0.137 0.168,0.277 0.244,0.42 a 0.75,0.75 0 0 0 1.326,-0.701 8.04,8.04 0 0 0 -0.3,-0.518 z M 15.995,7.7 a 0.75052248,0.75052248 0 0 0 -1.5,0.056 6.583,6.583 0 0 1 0.002,0.45 0.75036808,0.75036808 0 1 0 1.5,0.047 8.158,8.158 0 0 0 -0.002,-0.552 z"
           id="path1-6"
           style="stroke-width:4.70491;stroke-dasharray:none" /><path
           d="m 11.78,5.22 a 0.75,0.75 0 0 1 0,1.06 l -4.5,4.5 a 0.75,0.75 0 0 1 -1.06,0 l -2,-2 A 0.75,0.75 0 0 1 5.28,7.72 l 1.47,1.47 3.97,-3.97 a 0.75,0.75 0 0 1 1.06,0 z"
           id="path2"
           style="stroke-width:4.70491;stroke-dasharray:none" /></g></g></g></svg>
